<svg id="Layer_1" data-name="Layer 1" xmlns="http://www.w3.org/2000/svg" viewBox="0 0 744.05 141.22"><defs><style>.cls-1{fill:#d4f4fc;}.cls-2{fill:#08b588;}.cls-3{fill:#1299d5;}.cls-4{fill:#009f9e;}.cls-5{fill:#0260a5;}.cls-6{fill:#03357c;}.cls-7{fill:#fff;}.cls-8{fill:#0072ad;stroke:#0072ad;stroke-miterlimit:10;stroke-width:0.19px;}</style></defs><title>Artboard 2</title><rect class="cls-1" x="175.51" y="110.81" width="568.55" height="30.41"/><path class="cls-2" d="M65,72.45H31.25a7.22,7.22,0,1,1,0-4.39H65L48.22,51.3H0V89.2H48.22Z"/><path class="cls-3" d="M68.08,65V31.25a7.2,7.2,0,1,1,4.37,0V65L89.2,48.2V0H51.31V48.22Z"/><path class="cls-4" d="M92.29,51.3,75.55,68.06h33.7a7.23,7.23,0,1,1,0,4.39H75.53L92.29,89.2h48.22V51.3Z"/><path class="cls-5" d="M72.45,75.54v33.73a7.24,7.24,0,1,1-4.37,0V75.54L51.31,92.3v48.22H89.2V92.3Z"/><path class="cls-6" d="M175.69,66.77V49.84h3.71V66.77Z"/><path class="cls-6" d="M182.69,66.77V49.84h3.72l7.1,11.36V49.84H197V66.77h-3.74l-7.07-11.33V66.77Z"/><path class="cls-6" d="M199.19,61.15h3.61a2.8,2.8,0,0,0,1.13,2.42,4.36,4.36,0,0,0,2.61.71,5,5,0,0,0,2.14-.4,1.79,1.79,0,0,0,1.15-1.71c0-1-.87-1.69-2.6-2.18-3-.86-4.62-1.34-4.86-1.48a4.13,4.13,0,0,1-2.61-3.95,4.47,4.47,0,0,1,2-3.86,7.29,7.29,0,0,1,4.32-1.26,8,8,0,0,1,4.72,1.26,4.79,4.79,0,0,1,2.06,4.19h-3.6c-.1-1.7-1.22-2.56-3.35-2.56a3.49,3.49,0,0,0-1.73.42,1.68,1.68,0,0,0-.83,1.5,1.42,1.42,0,0,0,.92,1.35,35.91,35.91,0,0,0,4.13,1.21,10.27,10.27,0,0,1,3,1.14,4.25,4.25,0,0,1,2.06,3.79,4.76,4.76,0,0,1-1.81,3.89,8,8,0,0,1-5.23,1.54,8.26,8.26,0,0,1-5-1.45A5.29,5.29,0,0,1,199.19,61.15Z"/><path class="cls-6" d="M219.39,66.77V53h-5.08V49.84h13.87V53h-5.09v13.8Z"/><path class="cls-6" d="M230.12,66.77V49.84h3.7V66.77Z"/><path class="cls-6" d="M240.87,66.77V53H235.8V49.84h13.86V53h-5.1v13.8Z"/><path class="cls-6" d="M265.94,49.84V60.36a6.55,6.55,0,0,1-1.87,5.09,7.62,7.62,0,0,1-5.34,1.72q-7.2,0-7.2-6.81V49.84h3.7V60.36a4.32,4.32,0,0,0,.62,2.54A3.35,3.35,0,0,0,258.73,64a3.57,3.57,0,0,0,2.76-.9,4.07,4.07,0,0,0,.76-2.78V49.84Z"/><path class="cls-6" d="M272.92,66.77V53h-5.07V49.84h13.86V53h-5.09v13.8Z"/><path class="cls-6" d="M283.66,66.77V49.84h12.65V53h-8.95V56.6h8.22v2.89h-8.22v4.15h9.15v3.13Z"/><path class="cls-6" d="M304.87,58.38A9.19,9.19,0,0,1,307.08,52a8.51,8.51,0,0,1,12.21,0,9.19,9.19,0,0,1,2.21,6.36,9,9,0,0,1-2.21,6.23,8.56,8.56,0,0,1-12.21,0A9,9,0,0,1,304.87,58.38Zm3.7,0a6.66,6.66,0,0,0,1.05,3.88,4.46,4.46,0,0,0,7.13,0,6.73,6.73,0,0,0,1-3.88,7.06,7.06,0,0,0-1-4,4.43,4.43,0,0,0-7.13,0A7,7,0,0,0,308.57,58.38Z"/><path class="cls-6" d="M324.05,66.77V49.84H336V53h-8.2v3.91h7.11v2.9h-7.11v7Z"/><path class="cls-6" d="M344.7,66.77V49.84h3.7v6.5h6.87v-6.5H359V66.77h-3.7v-7.3H348.4v7.3Z"/><path class="cls-6" d="M362.27,66.77V49.84H366V66.77Z"/><path class="cls-6" d="M381.88,66.77l-.38-1.92a5.61,5.61,0,0,1-4.64,2.32,7.82,7.82,0,0,1-6.11-2.56,9,9,0,0,1-2.2-6.23,9.23,9.23,0,0,1,2.2-6.36,7.76,7.76,0,0,1,6.12-2.58A7.53,7.53,0,0,1,381.59,51,6.16,6.16,0,0,1,384,55.42h-3.56a3.53,3.53,0,0,0-1.27-2.12,3.71,3.71,0,0,0-2.32-.73,4,4,0,0,0-3.56,1.8,7,7,0,0,0-1.05,4,6.73,6.73,0,0,0,1.05,3.88A4.06,4.06,0,0,0,376.86,64c2.47,0,3.82-1.21,4-3.65h-3.75V57.61h7.09v9.16Z"/><path class="cls-6" d="M387.25,66.77V49.84H391v6.5h6.88v-6.5h3.69V66.77h-3.69v-7.3H391v7.3Z"/><path class="cls-6" d="M404.82,66.77V49.84h12.66V53h-9V56.6h8.23v2.89h-8.23v4.15h9.16v3.13Z"/><path class="cls-6" d="M420.18,66.77V49.84h9.11a5,5,0,0,1,3.62,1.37,4.46,4.46,0,0,1,1.33,3.3,4.17,4.17,0,0,1-2.65,4.25v0q2.22.57,2.46,4c0,.68.1,1.36.15,2a4.17,4.17,0,0,0,.56,2H431a7.6,7.6,0,0,1-.41-1.92c-.06-.72-.12-1.42-.18-2.13a3.25,3.25,0,0,0-.82-2,2.89,2.89,0,0,0-2-.6h-3.73v6.62Zm3.7-14V57.5H428c1.71,0,2.57-.81,2.57-2.42s-.86-2.35-2.57-2.35Z"/><path class="cls-6" d="M443.89,66.77V49.84h12.66V53h-9V56.6h8.23v2.89h-8.23v4.15h9.16v3.13Z"/><path class="cls-6" d="M459.25,66.77V49.84h7.29A7.26,7.26,0,0,1,472,51.93a8.52,8.52,0,0,1,2.19,6.28,9.24,9.24,0,0,1-1.89,6.11,7.07,7.07,0,0,1-5.77,2.45ZM462.94,53V63.64h3.34a3.92,3.92,0,0,0,2.92-1.14,5.35,5.35,0,0,0,1.31-3.93,6.53,6.53,0,0,0-1.05-4.08A4.57,4.57,0,0,0,465.61,53Z"/><path class="cls-6" d="M491.15,49.84V60.36a6.52,6.52,0,0,1-1.88,5.09,7.59,7.59,0,0,1-5.33,1.72q-7.2,0-7.19-6.81V49.84h3.69V60.36a4.25,4.25,0,0,0,.63,2.54A3.3,3.3,0,0,0,483.94,64a3.59,3.59,0,0,0,2.76-.9,4.07,4.07,0,0,0,.76-2.78V49.84Z"/><path class="cls-6" d="M509.26,55.53h-3.6a3.14,3.14,0,0,0-1.24-2.11,3.84,3.84,0,0,0-2.47-.85,4,4,0,0,0-3.56,1.8,7,7,0,0,0-1.05,4,6.66,6.66,0,0,0,1.05,3.88A4.06,4.06,0,0,0,502,64,3.54,3.54,0,0,0,504.63,63a4.55,4.55,0,0,0,1.17-2.73h3.61a7.5,7.5,0,0,1-2.31,5A7.24,7.24,0,0,1,502,67.17a7.84,7.84,0,0,1-6.12-2.56,9,9,0,0,1-2.21-6.23A9.19,9.19,0,0,1,495.85,52,7.76,7.76,0,0,1,502,49.44,7.57,7.57,0,0,1,506.85,51,6.41,6.41,0,0,1,509.26,55.53Z"/><path class="cls-6" d="M510.15,66.77l6.42-16.93h3.82l6.32,16.93h-3.86L521.57,63h-6.33l-1.33,3.77ZM518.42,54l-2.21,6.22h4.39L518.47,54Z"/><path class="cls-6" d="M531.93,66.77V53h-5.07V49.84h13.87V53h-5.1v13.8Z"/><path class="cls-6" d="M542.67,66.77V49.84h3.7V66.77Z"/><path class="cls-6" d="M548.93,58.38a9.18,9.18,0,0,1,2.2-6.36,8.51,8.51,0,0,1,12.21,0,9.19,9.19,0,0,1,2.21,6.36,9,9,0,0,1-2.21,6.23,8.56,8.56,0,0,1-12.21,0A9,9,0,0,1,548.93,58.38Zm3.7,0a6.65,6.65,0,0,0,1,3.88,4.46,4.46,0,0,0,7.13,0,6.66,6.66,0,0,0,1.05-3.88,7,7,0,0,0-1.05-4,4.43,4.43,0,0,0-7.13,0A7,7,0,0,0,552.63,58.38Z"/><path class="cls-6" d="M568.1,66.77V49.84h3.72l7.1,11.36V49.84h3.48V66.77h-3.73l-7.08-11.33V66.77Z"/><path class="cls-6" d="M603,66.77l-1.37-1.69a6.6,6.6,0,0,1-4.76,2A5.67,5.67,0,0,1,593,65.77,4.74,4.74,0,0,1,591.39,62q0-3.15,3.79-4.92a6,6,0,0,1-1.61-3.61,3.51,3.51,0,0,1,1.35-2.82,4.78,4.78,0,0,1,3.06-1,5.16,5.16,0,0,1,3.3,1,3.69,3.69,0,0,1,1.35,3c0,1.75-1,3.16-3,4.23l2.18,2.69a6.06,6.06,0,0,0,.61-2h2.91a7.71,7.71,0,0,1-1.63,4.17l3.44,4Zm-3.15-3.93L597,59.3c-1.58.7-2.37,1.63-2.37,2.8a2,2,0,0,0,.72,1.57,2.43,2.43,0,0,0,1.7.65A3.8,3.8,0,0,0,599.85,62.84Zm-.16-9.34a1.61,1.61,0,0,0-.47-1.15,1.5,1.5,0,0,0-2.14,0,1.4,1.4,0,0,0-.45,1.07,2.64,2.64,0,0,0,.42,1.38c.1.16.4.55.91,1.17a6.31,6.31,0,0,0,1.22-1A2.24,2.24,0,0,0,599.69,53.5Z"/><path class="cls-6" d="M615.1,66.77V49.84h9.1a5,5,0,0,1,3.63,1.37,4.5,4.5,0,0,1,1.33,3.3,4.16,4.16,0,0,1-2.67,4.25v0q2.24.57,2.47,4c0,.68.09,1.36.15,2a4.29,4.29,0,0,0,.56,2H626a7.67,7.67,0,0,1-.4-1.92c-.06-.72-.13-1.42-.19-2.13a3.25,3.25,0,0,0-.82-2,2.84,2.84,0,0,0-2-.6h-3.74v6.62Zm3.69-14V57.5h4.09c1.72,0,2.58-.81,2.58-2.42s-.86-2.35-2.58-2.35Z"/><path class="cls-6" d="M632.21,66.77V49.84h12.66V53h-9V56.6h8.22v2.89h-8.22v4.15h9.15v3.13Z"/><path class="cls-6" d="M646.51,61.15h3.59a2.81,2.81,0,0,0,1.15,2.42,4.35,4.35,0,0,0,2.6.71,5,5,0,0,0,2.14-.4,1.8,1.8,0,0,0,1.16-1.71c0-1-.87-1.69-2.6-2.18-3-.86-4.63-1.34-4.87-1.48a4.13,4.13,0,0,1-2.61-3.95,4.46,4.46,0,0,1,2-3.86,7.26,7.26,0,0,1,4.31-1.26,8,8,0,0,1,4.72,1.26,4.77,4.77,0,0,1,2.06,4.19h-3.6c-.1-1.7-1.2-2.56-3.34-2.56a3.43,3.43,0,0,0-1.73.42,1.67,1.67,0,0,0-.84,1.5,1.41,1.41,0,0,0,.94,1.35,32.92,32.92,0,0,0,4.12,1.21,10,10,0,0,1,3,1.14,4.23,4.23,0,0,1,2.06,3.79,4.78,4.78,0,0,1-1.8,3.89,8.06,8.06,0,0,1-5.24,1.54,8.21,8.21,0,0,1-5-1.45A5.29,5.29,0,0,1,646.51,61.15Z"/><path class="cls-6" d="M663,66.77V49.84h12.67V53h-9V56.6h8.24v2.89h-8.24v4.15h9.16v3.13Z"/><path class="cls-6" d="M676.52,66.77,683,49.84h3.81l6.33,16.93h-3.87L687.94,63h-6.32l-1.34,3.77ZM684.8,54l-2.22,6.22H687L684.83,54Z"/><path class="cls-6" d="M694.56,66.77V49.84h9.12a4.94,4.94,0,0,1,3.61,1.37,4.5,4.5,0,0,1,1.33,3.3A4.16,4.16,0,0,1,706,58.76v0q2.24.57,2.47,4c0,.68.09,1.36.14,2a4.42,4.42,0,0,0,.56,2h-3.71a7.67,7.67,0,0,1-.4-1.92c-.07-.72-.13-1.42-.19-2.13a3.26,3.26,0,0,0-.83-2,2.82,2.82,0,0,0-2-.6h-3.73v6.62Zm3.7-14V57.5h4.09c1.71,0,2.58-.81,2.58-2.42s-.87-2.35-2.58-2.35Z"/><path class="cls-6" d="M726.56,55.53H723a3.1,3.1,0,0,0-1.24-2.11,3.79,3.79,0,0,0-2.46-.85,4,4,0,0,0-3.57,1.8,7.06,7.06,0,0,0-1,4,6.73,6.73,0,0,0,1,3.88A4.06,4.06,0,0,0,719.25,64,3.57,3.57,0,0,0,721.93,63a4.6,4.6,0,0,0,1.16-2.73h3.62a7.47,7.47,0,0,1-2.32,5,7.22,7.22,0,0,1-5.13,1.89,7.87,7.87,0,0,1-6.12-2.56,9,9,0,0,1-2.2-6.23,9.18,9.18,0,0,1,2.2-6.36,7.76,7.76,0,0,1,6.12-2.58A7.57,7.57,0,0,1,724.14,51,6.42,6.42,0,0,1,726.56,55.53Z"/><path class="cls-6" d="M729.25,66.77V49.84h3.69v6.5h6.87v-6.5h3.7V66.77h-3.7v-7.3h-6.87v7.3Z"/><path class="cls-6" d="M276.05.89H259.22V38.21h8.2V24.82h8.63c9.3,0,12.89-5.9,12.89-12S285.35.89,276.05.89Zm-2.26,17.56h-6.37V7.27h6.37c3.82,0,7.21.83,7.21,5.58S277.61,18.45,273.79,18.45Zm31.62,3.71h18.08V15.78H305.41v-8H325.1V.89H297.21V38.21h28.32V31.3H305.41Zm-109.66-5.9c-9.36-2.41-11.13-2.78-11.13-5.64,0-3.14,3-4.24,5.64-4.24,3.93,0,7.11,1.15,7.38,5.63h7.94c0-8.61-7.17-12-14.94-12-6.75,0-14,3.66-14,11.29,0,7,5.59,9.15,11.13,10.61s11.08,2.14,11.08,6.16c0,3.82-4.39,4.66-7.26,4.66-4.39,0-8.25-1.95-8.25-6.91h-7.95c-.1,9.2,7.63,13.27,15.88,13.27,10.14,0,15.52-5.11,15.52-11.95C206.83,18.66,198.47,16.93,195.75,16.26Zm44,12.93a4.51,4.51,0,1,0,4.51,4.51A4.51,4.51,0,0,0,239.77,29.19ZM431.4,20.64v-.1c4.13-1.68,5.91-5,5.91-9.35,0-5.66-4.24-10.3-10.93-10.3H406.25V38.21h8.22V23.62h8.2c4.14,0,5.64,1.73,6.22,5.65.42,3,.32,6.58,1.31,8.94h8.2c-1.46-2.1-1.41-6.48-1.56-8.84C436.58,25.6,435.42,21.68,431.4,20.64Zm-7.95-2.87h-9V7.27h9c3.67,0,5.65,1.56,5.65,5.18S427.12,17.77,423.45,17.77Zm52.34-1.51c-9.37-2.41-11.13-2.78-11.13-5.64,0-3.14,3-4.24,5.63-4.24,3.92,0,7.11,1.15,7.38,5.63h7.93c0-8.61-7.15-12-14.94-12-6.74,0-14,3.66-14,11.29,0,7,5.58,9.15,11.12,10.61s11.09,2.14,11.09,6.16c0,3.82-4.4,4.66-7.27,4.66-4.39,0-8.25-1.95-8.25-6.91h-7.95c-.11,9.2,7.64,13.27,15.88,13.27,10.15,0,15.53-5.11,15.53-11.95C486.86,18.66,478.5,16.93,475.79,16.26Zm-32.54-2.67h6.31L453.76,1h-6.33Zm-65.78,8.57h18.08V15.78H377.47v-8h19.7V.89H369.26V38.21h28.32V31.3H377.47ZM331.28,7.79h11.18V38.21h8.2V7.79h11.19V.89H331.28ZM224.76,1.12h-7.93V9.83H212v5.33h4.82V32.28q0,6.91,9.16,6.92a29.6,29.6,0,0,0,4.66-.28V32.69a12.82,12.82,0,0,1-2.49.22,3.86,3.86,0,0,1-2.72-.68,3.82,3.82,0,0,1-.68-2.69V15.16h5.89V9.83h-5.89Z"/><rect class="cls-3" x="496.98" y="0.3" width="246.56" height="38.6"/><rect class="cls-3" x="175.51" y="80.94" width="568.55" height="30.41"/><path class="cls-7" d="M227.7,89.27h3.9a13.24,13.24,0,0,1,1.83.13,4.08,4.08,0,0,1,1.75.67,3.37,3.37,0,0,1,1.52,2.46,13.07,13.07,0,0,1,.11,1.74v5.85q0,2.94-1,4a3.38,3.38,0,0,1-1.81,1,14.41,14.41,0,0,1-2.09.09H227.7Zm2.18,1.79v12.31h2c1.21,0,2-.31,2.32-.94a5.75,5.75,0,0,0,.41-2.6V94.44a5,5,0,0,0-.44-2.49,2.62,2.62,0,0,0-2.29-.89Z"/><path class="cls-7" d="M239.61,89.27h7.15v1.79h-5v5h4.66v1.79H241.8v5.48h5.11v1.79h-7.3Z"/><path class="cls-7" d="M249.44,89.27h7.15v1.79h-5v5h4.67v1.79h-4.67v5.48h5.12v1.79h-7.3Z"/><path class="cls-7" d="M262.84,89.27l2.82,12.63,2.83-12.63h3.57v15.89H270V91.31l-3.27,13.85h-2.15l-3.27-13.85v13.85h-2.05V89.27Z"/><path class="cls-7" d="M275.07,89.27h7.16v1.79h-5v5h4.66v1.79h-4.66v5.48h5.11v1.79h-7.3Z"/><path class="cls-7" d="M285,89.27h3.9a13.39,13.39,0,0,1,1.84.13,4.13,4.13,0,0,1,1.75.67A3.4,3.4,0,0,1,294,92.53a15,15,0,0,1,.11,1.74v5.85c0,2-.36,3.28-1,4a3.35,3.35,0,0,1-1.81,1,14.14,14.14,0,0,1-2.08.09H285Zm2.19,1.79v12.31h2c1.21,0,2-.31,2.32-.94a5.77,5.77,0,0,0,.4-2.6V94.44a4.86,4.86,0,0,0-.44-2.49,2.6,2.6,0,0,0-2.28-.89Z"/><path class="cls-7" d="M310.79,89.27v1.79h-3.67v14.1h-2.19V91.06h-3.67V89.27Z"/><path class="cls-7" d="M311.74,94.4a10.88,10.88,0,0,1,.29-2.87,3.14,3.14,0,0,1,1.93-2,5.79,5.79,0,0,1,2.32-.46,5.86,5.86,0,0,1,2.32.46,3.15,3.15,0,0,1,1.92,2,10.73,10.73,0,0,1,.3,2.87v5.32a22,22,0,0,1-.12,2.49q-.37,3.15-4.35,3.17c-1.93,0-3.22-.49-3.88-1.47a8.2,8.2,0,0,1-.73-4.19Zm2.19,5.3a9.23,9.23,0,0,0,.23,2.61,1.76,1.76,0,0,0,.85.94,2.38,2.38,0,0,0,1.27.34,2.25,2.25,0,0,0,1.15-.28,2.05,2.05,0,0,0,1.14-1.82c0-.5.06-1.09.07-1.79V94.39a6.33,6.33,0,0,0-.32-2.43,2,2,0,0,0-2-1.12,2.71,2.71,0,0,0-1.1.23,2,2,0,0,0-1.2,1.85,13.12,13.12,0,0,0-.05,1.47Z"/><path class="cls-7" d="M329,89.27h4a9.56,9.56,0,0,1,1.74.15c1.91.33,2.88,1.66,2.91,4a4.23,4.23,0,0,1-.72,2.61,3.73,3.73,0,0,1-2.19,1,3.43,3.43,0,0,1,2.59,1.12,4.65,4.65,0,0,1,.73,2.77,6.6,6.6,0,0,1-.26,1.84,2.91,2.91,0,0,1-1.79,2.07,7.72,7.72,0,0,1-2.79.33H329Zm2.18,1.79v5.07h1.69A4.74,4.74,0,0,0,334,96c.87-.18,1.32-1,1.33-2.54s-.84-2.41-2.58-2.42Zm0,6.86v5.45h1.7a3.46,3.46,0,0,0,2.28-.6,3,3,0,0,0,.68-2.24c0-1.42-.57-2.25-1.72-2.49a7.92,7.92,0,0,0-1.25-.12Z"/><path class="cls-7" d="M340.41,89.27h7.15v1.79h-5v5h4.67v1.79h-4.67v5.48h5.12v1.79h-7.3Z"/><path class="cls-7" d="M355.35,89.27h2.19V99.86l0,1.41c.07,1.54.8,2.32,2.18,2.32a2.08,2.08,0,0,0,2.28-2.17c.05-.51.07-1,.08-1.56V89.27h2.19V100c0,.88,0,1.56-.08,2a3.3,3.3,0,0,1-.72,1.86,4.54,4.54,0,0,1-3.68,1.44,4.45,4.45,0,0,1-3.69-1.42,3.33,3.33,0,0,1-.71-1.88q-.06-.63-.06-2Z"/><path class="cls-7" d="M370.63,89.27,374.75,103V89.27h2.06v15.89h-3.43l-4.12-13.55v13.55H367.2V89.27Z"/><path class="cls-7" d="M381.85,89.27v15.89h-2.18V89.27Z"/><path class="cls-7" d="M386.24,89.27l2.54,13.44,2.48-13.44h2.12L390,105.16h-2.67L384,89.27Z"/><path class="cls-7" d="M395.51,89.27h7.16v1.79h-5v5h4.66v1.79H397.7v5.48h5.11v1.79h-7.3Z"/><path class="cls-7" d="M409,89.27h1.31a7.29,7.29,0,0,1,1.38.15q2.43.47,2.46,3.81a4.66,4.66,0,0,1-.64,2.67,3.67,3.67,0,0,1-2.41,1.17,4.07,4.07,0,0,1,1.6.42,1.87,1.87,0,0,1,.87,1.37,9.82,9.82,0,0,1,.15,1.48l.09,1.87a13.05,13.05,0,0,0,.18,1.68,11,11,0,0,0,.32,1.27H412l-.21-1a6.78,6.78,0,0,1-.13-1.09l-.08-1.43-.08-1.49c-.09-1.14-.54-1.82-1.33-2a4.41,4.41,0,0,0-1.14-.13h-1.51v7.21h-2.19V89.27Zm-1.45,1.79v5.09h1.56a6.22,6.22,0,0,0,1.21-.1,1.76,1.76,0,0,0,1.39-1A4.38,4.38,0,0,0,412,93.3a2.09,2.09,0,0,0-.73-1.84,3.65,3.65,0,0,0-2-.4Z"/><path class="cls-7" d="M418.55,99.83v.89a4.65,4.65,0,0,0,.13,1.26,1.9,1.9,0,0,0,2.13,1.61,2.9,2.9,0,0,0,1.23-.22,2.21,2.21,0,0,0,1.27-2.27,2.37,2.37,0,0,0-.82-1.9,11.44,11.44,0,0,0-1.36-.92l-1.59-.89A8.51,8.51,0,0,1,418,96.32a4,4,0,0,1-1.32-3.24,3.71,3.71,0,0,1,1.48-3.28,5.38,5.38,0,0,1,3-.76,4.42,4.42,0,0,1,3.34,1.09c.54.57.81,1.71.81,3.4v.31h-2.19v-.38l0-.82a1.75,1.75,0,0,0-1.95-1.8A2,2,0,0,0,418.83,93a2.59,2.59,0,0,0,1.38,2.26c.57.36,1.22.73,1.94,1.11a13.37,13.37,0,0,1,1.76,1A4.2,4.2,0,0,1,425.5,101q0,4.37-4.68,4.36a4.73,4.73,0,0,1-3.06-.81,3.64,3.64,0,0,1-1.37-2.83l0-1.28v-.63Z"/><path class="cls-7" d="M430.14,89.27v15.89H428V89.27Z"/><path class="cls-7" d="M441.94,89.27v1.79h-3.67v14.1h-2.19V91.06h-3.67V89.27Z"/><path class="cls-7" d="M448.16,96.25l2.43-7h2.19l-3.62,9.29v6.6H447v-6.6l-3.62-9.29h2.48Z"/><path class="cls-7" d="M460,89.27h2.19V99.86l0,1.41c.08,1.54.81,2.32,2.19,2.32a2.09,2.09,0,0,0,2.28-2.17c0-.51.07-1,.07-1.56V89.27H469V100c0,.88,0,1.56-.08,2a3.3,3.3,0,0,1-.72,1.86,4.51,4.51,0,0,1-3.67,1.44,4.46,4.46,0,0,1-3.7-1.42,3.33,3.33,0,0,1-.71-1.88q-.06-.63-.06-2Z"/><path class="cls-7" d="M473.48,89.25h1.41l-2.3,17.64h-1.4Z"/><path class="cls-7" d="M478.78,99.83v.89a4.65,4.65,0,0,0,.13,1.26,1.9,1.9,0,0,0,2.13,1.61,2.9,2.9,0,0,0,1.23-.22,2.21,2.21,0,0,0,1.27-2.27,2.34,2.34,0,0,0-.82-1.9,11.44,11.44,0,0,0-1.36-.92l-1.59-.89a8.51,8.51,0,0,1-1.58-1.07,4,4,0,0,1-1.32-3.24,3.71,3.71,0,0,1,1.48-3.28,5.38,5.38,0,0,1,3-.76,4.4,4.4,0,0,1,3.34,1.09c.54.57.81,1.71.81,3.4v.31h-2.19v-.38l0-.82a1.75,1.75,0,0,0-1.95-1.8A2,2,0,0,0,479.06,93a2.59,2.59,0,0,0,1.38,2.26c.58.36,1.22.73,1.94,1.11a13.37,13.37,0,0,1,1.76,1,4.2,4.2,0,0,1,1.59,3.58q0,4.37-4.68,4.36a4.73,4.73,0,0,1-3.06-.81,3.67,3.67,0,0,1-1.37-2.83l0-1.28v-.63Z"/><path class="cls-7" d="M494.81,100.64v1.08a2.08,2.08,0,0,0,.5,1.38,1.62,1.62,0,0,0,1.33.53,2.1,2.1,0,0,0,2.38-1.76,6,6,0,0,0,.1-1.08A6.37,6.37,0,0,0,498.9,99a1.83,1.83,0,0,0-.73-1,3.54,3.54,0,0,0-1.89-.44V95.77l1-.11a2.33,2.33,0,0,0,1.08-.4,1.53,1.53,0,0,0,.56-.86,5.06,5.06,0,0,0,.14-1.2,3.26,3.26,0,0,0-.36-1.72,1.8,1.8,0,0,0-1.59-.64c-1.42,0-2.12.81-2.12,2.43v.36H493v-.54c0-2.64,1.34-4,4-4a6.22,6.22,0,0,1,2,.31,2.79,2.79,0,0,1,1.94,1.9,6.33,6.33,0,0,1,.21,1.68c0,1.84-.52,3-1.48,3.43l-.76.3.69.23a2.4,2.4,0,0,1,1.51,2.1,13,13,0,0,1,.09,1.55,5.19,5.19,0,0,1-.94,3.55,4.45,4.45,0,0,1-3.41,1.25,4,4,0,0,1-3-1.06,4.09,4.09,0,0,1-1.05-3v-.65Z"/><path class="cls-7" d="M509.06,94.4a10.46,10.46,0,0,1,.29-2.87,3.1,3.1,0,0,1,1.92-2,6.11,6.11,0,0,1,4.65,0,3.16,3.16,0,0,1,1.91,2,11.07,11.07,0,0,1,.31,2.87v5.32a19.72,19.72,0,0,1-.13,2.49q-.36,3.15-4.35,3.17-2.89,0-3.87-1.47a8.09,8.09,0,0,1-.73-4.19Zm2.18,5.3a9.5,9.5,0,0,0,.24,2.61,1.78,1.78,0,0,0,.84.94,2.41,2.41,0,0,0,1.28.34,2.28,2.28,0,0,0,1.15-.28,2,2,0,0,0,1.13-1.82c0-.5.06-1.09.07-1.79V94.39a6.38,6.38,0,0,0-.31-2.43,2,2,0,0,0-2-1.12,2.79,2.79,0,0,0-1.11.23,2,2,0,0,0-1.19,1.85,11,11,0,0,0-.06,1.47Z"/><path class="cls-7" d="M528.09,89.27v1.79H523.3v5h4.61v1.79H523.3v7.28h-2.19V89.27Z"/><path class="cls-7" d="M544.41,89.27v1.79h-3.68v14.1h-2.18V91.06h-3.68V89.27Z"/><path class="cls-7" d="M546.68,89.27h2.19V96h4.61V89.27h2.18v15.89h-2.18V97.8h-4.61v7.36h-2.19Z"/><path class="cls-7" d="M558.66,89.27h7.16v1.79h-5v5h4.66v1.79h-4.66v5.48H566v1.79h-7.3Z"/><path class="cls-7" d="M573.6,89.27h2.19V99.86l0,1.41c.08,1.54.81,2.32,2.19,2.32a2.08,2.08,0,0,0,2.27-2.17c.05-.51.08-1,.08-1.56V89.27h2.19V100c0,.88,0,1.56-.08,2a3.3,3.3,0,0,1-.72,1.86,4.51,4.51,0,0,1-3.67,1.44,4.46,4.46,0,0,1-3.7-1.42,3.33,3.33,0,0,1-.71-1.88q-.06-.63-.06-2Z"/><path class="cls-7" d="M589.94,98.53V96.74h4.63v7.91l-1.11.34a10.56,10.56,0,0,1-1.29.25,13,13,0,0,1-2,.14,4.82,4.82,0,0,1-3.68-1.18c-.64-.69-1-1.94-1-3.74V94.71a10.53,10.53,0,0,1,.37-3.34,3.37,3.37,0,0,1,2.49-2.11,8.26,8.26,0,0,1,1.83-.22,5,5,0,0,1,3.26,1,4.08,4.08,0,0,1,1.13,3.16v.52h-2.18v-.36a4.26,4.26,0,0,0-.07-.78,1.86,1.86,0,0,0-2.07-1.73,2.22,2.22,0,0,0-2.15,1,2.85,2.85,0,0,0-.37,1.24,11.48,11.48,0,0,0-.05,1.34v5.64a6,6,0,0,0,.33,2.49,2.13,2.13,0,0,0,2.18,1,4.89,4.89,0,0,0,1.25-.14l.95-.29V98.53Z"/><path class="cls-7" d="M604,93.47v-.74c-.06-1.27-.67-1.9-1.85-1.89a2,2,0,0,0-2,1,2.24,2.24,0,0,0-.28,1l0,1.31v6.26a6,6,0,0,0,.27,2.2,2,2,0,0,0,1.87,1c1.17,0,1.83-.68,2-2l.09-1V100h2.18v.55l0,1a4.23,4.23,0,0,1-1,2.73,3,3,0,0,1-1.27.82,5.78,5.78,0,0,1-1.9.29,6.23,6.23,0,0,1-1.68-.19q-2.7-.61-2.71-4.45V94.41a13,13,0,0,1,.1-1.92,3.8,3.8,0,0,1,.59-1.8q1-1.6,3.75-1.65c2.53,0,3.89,1,4.08,3,0,.37.05.78.05,1.25v.62H604Z"/><path class="cls-7" d="M617.21,89.27h2.88l3.66,15.89h-2.3l-.75-3.63h-4.25l-.78,3.63h-2.12Zm-.39,10.47h3.47l-1.68-8.46Z"/><path class="cls-7" d="M632.19,93.47v-.74c0-1.27-.67-1.9-1.85-1.89a2,2,0,0,0-2,1,2.24,2.24,0,0,0-.28,1l0,1.31v6.26a5.55,5.55,0,0,0,.27,2.2,1.94,1.94,0,0,0,1.87,1c1.16,0,1.82-.68,2-2l.09-1V100h2.19v.55l0,1a4.18,4.18,0,0,1-1,2.73,2.94,2.94,0,0,1-1.27.82,5.78,5.78,0,0,1-1.9.29,6.12,6.12,0,0,1-1.67-.19c-1.81-.41-2.71-1.89-2.72-4.45V94.41a14.57,14.57,0,0,1,.1-1.92,3.91,3.91,0,0,1,.59-1.8q1.05-1.6,3.75-1.65c2.53,0,3.89,1,4.08,3a11.63,11.63,0,0,1,.06,1.25v.62h-2.19Z"/><path class="cls-7" d="M644.79,89.27v1.79h-3.68v14.1h-2.18V91.06h-3.67V89.27Z"/><path class="cls-7" d="M653.33,91.37l1-.6a11.67,11.67,0,0,0,1.13-.88l.68-.59h1.71v15.86h-2.05V91.76l-.76.6a4.22,4.22,0,0,1-.91.57l-.78.32Z"/><path class="cls-7" d="M668.11,98.8a4.06,4.06,0,0,1-2.15.57,3.71,3.71,0,0,1-1.43-.24,2.76,2.76,0,0,1-1.82-2.4,12.09,12.09,0,0,1-.2-2.28,7.09,7.09,0,0,1,.75-3.83,3.87,3.87,0,0,1,3.48-1.54,5.71,5.71,0,0,1,1.5.19,3.68,3.68,0,0,1,1.53.84,2.85,2.85,0,0,1,.75,1.1,6.07,6.07,0,0,1,.3,1.6c.07,1,.1,2.15.1,3.36,0,1.58,0,3.11-.13,4.58a11.05,11.05,0,0,1-.31,2,3,3,0,0,1-.6,1.23,4.12,4.12,0,0,1-3.42,1.35,5.29,5.29,0,0,1-1.93-.3,2.37,2.37,0,0,1-1.4-1.15,3.58,3.58,0,0,1-.49-1.62,7.74,7.74,0,0,1,0-1v-.51h2v.5q0,2.28,2,2.31a1.87,1.87,0,0,0,1.87-1.13,8.34,8.34,0,0,0,.33-2.28l0-1.94Zm.79-4.64a6.51,6.51,0,0,0-.3-2.28,1.84,1.84,0,0,0-1.89-1A1.8,1.8,0,0,0,664.88,92a6.27,6.27,0,0,0-.32,2.26,9.13,9.13,0,0,0,.11,1.5,1.86,1.86,0,0,0,2,1.88Q668.95,97.64,668.9,94.16Z"/><path class="cls-7" d="M675.55,101.23v.39q0,2,1.83,2a1.82,1.82,0,0,0,2-1.54,15.36,15.36,0,0,0,.18-2.76c0-.43,0-.8,0-1.12a1.71,1.71,0,0,0-1.86-1.74c-1.14,0-1.79.48-1.93,1.42l-.08.71h-2l.14-9.3h7.5v1.76h-5.59l-.13,5a6.08,6.08,0,0,1,.72-.68,3.56,3.56,0,0,1,2.25-.71,2.66,2.66,0,0,1,3,2.55,16.47,16.47,0,0,1,.13,2.13,19.51,19.51,0,0,1-.2,3,3.68,3.68,0,0,1-.64,1.67,3.72,3.72,0,0,1-3.26,1.3,6.89,6.89,0,0,1-1.73-.21,2.79,2.79,0,0,1-1.44-.82,3.49,3.49,0,0,1-.83-2.55v-.57Z"/><path class="cls-7" d="M686.69,95.69a4.1,4.1,0,0,1,2.11-.56,3,3,0,0,1,3.28,2.61,12.62,12.62,0,0,1,.19,2.24,7.17,7.17,0,0,1-.74,3.84,3.83,3.83,0,0,1-3.46,1.56c-2.56,0-3.93-1.27-4.1-3.74-.08-1-.11-2.09-.1-3.28,0-1.62,0-3.17.13-4.65a9.8,9.8,0,0,1,.31-2q.62-2.56,4-2.58a4.59,4.59,0,0,1,2.62.7,2.75,2.75,0,0,1,1.25,2.35l0,1v.47h-2.05v-.27l0-.64c-.12-1.26-.74-1.89-1.87-1.89a2,2,0,0,0-2.16,2c-.06.46-.1.92-.12,1.4l0,1.94Zm-.8,4.6a6.21,6.21,0,0,0,.3,2.28,1.84,1.84,0,0,0,1.89,1.06,1.86,1.86,0,0,0,2-1.81,12.1,12.1,0,0,0,.12-1.66,10.09,10.09,0,0,0-.09-1.4,1.87,1.87,0,0,0-2-1.87A2,2,0,0,0,686,98.81,7.66,7.66,0,0,0,685.89,100.29Z"/><path class="cls-7" d="M512.89,11.8V27.69H510.7V11.8Z"/><path class="cls-7" d="M520.25,21.06V19.27h4.63v7.91l-1.12.34a10.76,10.76,0,0,1-1.28.25,13.21,13.21,0,0,1-2,.14,4.8,4.8,0,0,1-3.67-1.18,5.55,5.55,0,0,1-1-3.74V17.24a10.35,10.35,0,0,1,.37-3.35,3.36,3.36,0,0,1,2.49-2.1,8.17,8.17,0,0,1,1.82-.22,5,5,0,0,1,3.27,1,4.07,4.07,0,0,1,1.13,3.16v.52h-2.19v-.36a5.32,5.32,0,0,0-.06-.78,1.88,1.88,0,0,0-2.08-1.74,2.26,2.26,0,0,0-2.15,1,2.84,2.84,0,0,0-.36,1.24A11.29,11.29,0,0,0,518,17v5.64a6.18,6.18,0,0,0,.33,2.49,2.13,2.13,0,0,0,2.19,1,4.5,4.5,0,0,0,1.25-.15l.94-.28V21.06Z"/><path class="cls-7" d="M531.16,11.8l4.12,13.69V11.8h2.05V27.69h-3.42l-4.13-13.55V27.69h-2V11.8Z"/><path class="cls-7" d="M542.38,11.8V27.69h-2.19V11.8Z"/><path class="cls-7" d="M554.18,11.8v1.79H550.5v14.1h-2.18V13.59h-3.67V11.8Z"/><path class="cls-7" d="M556.47,11.8h7.15v1.79h-5v5h4.67v1.79h-4.67V25.9h5.12v1.79h-7.3Z"/><path class="cls-7" d="M578.65,11.8V27.69h-2.18V11.8Z"/><path class="cls-7" d="M585,11.8l4.13,13.69V11.8h2V27.69H587.7l-4.12-13.55V27.69h-2.05V11.8Z"/><path class="cls-7" d="M595.69,22.36v.89a4.64,4.64,0,0,0,.14,1.26A1.89,1.89,0,0,0,598,26.12a3.06,3.06,0,0,0,1.23-.22,2.22,2.22,0,0,0,1.27-2.27,2.37,2.37,0,0,0-.82-1.9,10.5,10.5,0,0,0-1.37-.92l-1.59-.89a8.41,8.41,0,0,1-1.57-1.07,4,4,0,0,1-1.32-3.24,3.67,3.67,0,0,1,1.47-3.28,5.41,5.41,0,0,1,3-.76,4.41,4.41,0,0,1,3.33,1.08c.54.58.82,1.72.82,3.41v.31H600.2V16l-.05-.82a1.76,1.76,0,0,0-1.95-1.81A2,2,0,0,0,596,15.55a2.58,2.58,0,0,0,1.39,2.25,22.33,22.33,0,0,0,1.94,1.11A14.48,14.48,0,0,1,601.06,20a4.2,4.2,0,0,1,1.58,3.58q0,4.36-4.67,4.36a4.78,4.78,0,0,1-3.07-.81,3.66,3.66,0,0,1-1.36-2.83l0-1.28v-.63Z"/><path class="cls-7" d="M608.58,11.8c.82,0,1.45,0,1.92.08a3.28,3.28,0,0,1,1.77.67A4.13,4.13,0,0,1,613.6,16q0,4.66-4.15,4.66h-2.11v7h-2.18V11.8Zm-1.24,1.79v5.29h1.78a2.22,2.22,0,0,0,1.89-.71,3.86,3.86,0,0,0,.4-2,2.57,2.57,0,0,0-.61-1.95,2.86,2.86,0,0,0-2-.59Z"/><path class="cls-7" d="M618,11.8V27.69h-2.19V11.8Z"/><path class="cls-7" d="M624.6,11.8h1.3a8.27,8.27,0,0,1,1.39.14q2.41.48,2.46,3.81a4.61,4.61,0,0,1-.65,2.67,3.58,3.58,0,0,1-2.41,1.18,4.17,4.17,0,0,1,1.6.41,1.89,1.89,0,0,1,.88,1.38,11.34,11.34,0,0,1,.15,1.47l.09,1.88a11.15,11.15,0,0,0,.18,1.67,10.17,10.17,0,0,0,.31,1.28h-2.27l-.22-1a6.93,6.93,0,0,1-.12-1.09l-.08-1.43-.08-1.49c-.1-1.14-.54-1.82-1.33-2.05a4.49,4.49,0,0,0-1.15-.13h-1.51v7.21H621V11.8Zm-1.46,1.79v5.09h1.57a6,6,0,0,0,1.2-.1,1.81,1.81,0,0,0,1.4-1,4.38,4.38,0,0,0,.25-1.76,2.12,2.12,0,0,0-.73-1.84,3.7,3.7,0,0,0-2-.4Z"/><path class="cls-7" d="M632.48,11.8h7.16v1.79h-5v5h4.67v1.79h-4.67V25.9h5.12v1.79h-7.31Z"/><path class="cls-7" d="M654.67,11.8V27.69h-2.19V11.8Z"/><path class="cls-7" d="M661,11.8l4.12,13.69V11.8h2.06V27.69h-3.43L659.6,14.14V27.69h-2.06V11.8Z"/><path class="cls-7" d="M673.37,11.8l4.12,13.69V11.8h2V27.69h-3.43L672,14.14V27.69h-2V11.8Z"/><path class="cls-7" d="M682.38,16.93a11.32,11.32,0,0,1,.29-2.87,3.18,3.18,0,0,1,1.93-2,6.21,6.21,0,0,1,4.64,0,3.18,3.18,0,0,1,1.92,2,10.68,10.68,0,0,1,.3,2.87v5.31a22.36,22.36,0,0,1-.12,2.5Q691,27.89,687,27.91c-1.93,0-3.22-.49-3.88-1.47a8.22,8.22,0,0,1-.73-4.2Zm2.19,5.3a9.23,9.23,0,0,0,.23,2.61,1.76,1.76,0,0,0,.85.94,2.38,2.38,0,0,0,1.27.34,2.36,2.36,0,0,0,1.15-.28A2.07,2.07,0,0,0,689.21,24c0-.49.06-1.09.07-1.78V16.91a6.31,6.31,0,0,0-.32-2.42,2,2,0,0,0-2-1.13,2.56,2.56,0,0,0-1.1.24,2,2,0,0,0-1.2,1.85,13,13,0,0,0,0,1.46Z"/><path class="cls-7" d="M695.39,11.8l2.54,13.44,2.48-13.44h2.12l-3.38,15.89h-2.67L693.1,11.8Z"/><path class="cls-7" d="M706,11.8h2.87l3.66,15.89h-2.29l-.76-3.63h-4.25l-.78,3.63h-2.11Zm-.4,10.47h3.48l-1.68-8.47Z"/><path class="cls-7" d="M721.6,11.8v1.79h-3.68v14.1h-2.18V13.59h-3.68V11.8Z"/><path class="cls-7" d="M723.88,11.8H731v1.79h-5v5h4.67v1.79h-4.67V25.9h5.12v1.79h-7.31Z"/><path class="cls-8" d="M285.56,118.82h2.88l3.66,15.89h-2.3l-.75-3.63H284.8l-.78,3.63H281.9Zm-.39,10.47h3.47L287,120.83Z"/><path class="cls-8" d="M296.64,118.82v15.89h-2.19V118.82Z"/><path class="cls-8" d="M306.1,123l0-.74c-.05-1.27-.66-1.9-1.84-1.89a2,2,0,0,0-2,1,2.26,2.26,0,0,0-.29,1l0,1.31v6.26a6,6,0,0,0,.27,2.2,2,2,0,0,0,1.87,1c1.17,0,1.82-.68,2-2l.1-1v-.54h2.18v.55l0,1a4.23,4.23,0,0,1-1,2.73,3,3,0,0,1-1.28.82,5.72,5.72,0,0,1-1.89.29,6.14,6.14,0,0,1-1.68-.19c-1.8-.41-2.71-1.89-2.71-4.45V124a13,13,0,0,1,.1-1.92,3.91,3.91,0,0,1,.58-1.8c.7-1.07,1.95-1.62,3.76-1.65,2.53,0,3.89,1,4.07,3a11.63,11.63,0,0,1,.06,1.25v.62H306.1Z"/><path class="cls-8" d="M318.69,118.82v1.79H315v14.1h-2.19v-14.1h-3.67v-1.79Z"/><path class="cls-8" d="M321,118.82h7.16v1.79h-5v5h4.66v1.79h-4.66v5.48h5.11v1.79H321Z"/><path class="cls-8" d="M339,118.82h2.88l3.66,15.89h-2.3l-.75-3.63h-4.25l-.78,3.63h-2.12Zm-.39,10.47H342l-1.68-8.46Z"/><path class="cls-8" d="M347.47,123.64h2v1.11a4,4,0,0,1,.68-.72,2.71,2.71,0,0,1,1.81-.61,2.41,2.41,0,0,1,2.55,2.27,7.32,7.32,0,0,1,.11,1.31v3.44a16.12,16.12,0,0,1-.1,1.87,2.82,2.82,0,0,1-4.47,2.08,2.94,2.94,0,0,1-.58-.56v5h-2Zm2,6.8a11.73,11.73,0,0,0,.07,1.33,2.43,2.43,0,0,0,.24.9,1.26,1.26,0,0,0,1.29.71c.88,0,1.36-.57,1.45-1.67,0-.43.05-.87.05-1.32v-3l0-.91c-.11-1-.59-1.53-1.42-1.52a1.34,1.34,0,0,0-1.33.85,3,3,0,0,0-.27.94,9.89,9.89,0,0,0-.05,1.13Z"/><path class="cls-8" d="M356.87,123.64h2.05v1.11a4,4,0,0,1,.68-.72,2.71,2.71,0,0,1,1.81-.61,2.41,2.41,0,0,1,2.55,2.27,8.37,8.37,0,0,1,.11,1.31v3.44a16.12,16.12,0,0,1-.1,1.87,2.82,2.82,0,0,1-4.47,2.08,2.69,2.69,0,0,1-.58-.56v5h-2.05Zm2.05,6.8a9.79,9.79,0,0,0,.07,1.33,2.43,2.43,0,0,0,.24.9,1.26,1.26,0,0,0,1.29.71c.88,0,1.36-.57,1.44-1.67q.06-.65.06-1.32v-3l0-.91c-.12-1-.59-1.53-1.42-1.52a1.34,1.34,0,0,0-1.33.85,2.75,2.75,0,0,0-.27.94,8,8,0,0,0-.05,1.13Z"/><path class="cls-8" d="M368.44,123.64V125a3.1,3.1,0,0,1,1.11-1.18,3.32,3.32,0,0,1,.81-.32l.65-.09v2l-.68.06a1.85,1.85,0,0,0-1.53.93,5.08,5.08,0,0,0-.36,2.16v6.11h-2.05V123.64Z"/><path class="cls-8" d="M372.25,127.87a7.76,7.76,0,0,1,.35-2.58,2.78,2.78,0,0,1,1.91-1.68,4.89,4.89,0,0,1,2.7,0,2.71,2.71,0,0,1,1.35.82,5.34,5.34,0,0,1,.89,3.44v2.77a5.23,5.23,0,0,1-.67,3.11,3.3,3.3,0,0,1-2.88,1.18c-2.11,0-3.29-.88-3.55-2.7a11.1,11.1,0,0,1-.1-1.59Zm2.05,2.77,0,1.07c.07,1.12.58,1.68,1.54,1.67a1.33,1.33,0,0,0,1.33-1,5.84,5.84,0,0,0,.19-1.77v-2.95c0-1.83-.52-2.73-1.55-2.72s-1.43.54-1.5,1.67l-.05,1Z"/><path class="cls-8" d="M382.88,123.64l1.73,9,1.73-9h2.11l-2.53,11.07H383.3l-2.53-11.07Z"/><path class="cls-8" d="M391.61,131.09a4.78,4.78,0,0,0,.18,1.58,1.33,1.33,0,0,0,1.33.71,1.37,1.37,0,0,0,1.55-1.26l0-.48v-.26h2.05v.26l0,.77q-.25,2.53-3.64,2.52a4.77,4.77,0,0,1-1.45-.18,2.47,2.47,0,0,1-1.38-.86,4.77,4.77,0,0,1-.7-2.9v-3.13a5.83,5.83,0,0,1,.64-3.24,3.48,3.48,0,0,1,3-1.2c2.2,0,3.36.94,3.51,2.77,0,.35,0,.76,0,1.23v2.48h-5.15Zm0-2.75h3.1v-1.27c0-1.38-.52-2.08-1.54-2.1a1.37,1.37,0,0,0-1.34.83,4.12,4.12,0,0,0-.22,1.64Z"/><path class="cls-8" d="M406,118.8v15.91h-2v-1a3.11,3.11,0,0,1-2.38,1.24,2.52,2.52,0,0,1-2.6-2.11,7.38,7.38,0,0,1-.17-1.67v-3.69c0-2.7.94-4,2.89-4a2.71,2.71,0,0,1,1.74.53c.13.11.31.27.52.47V118.8Zm-5.15,12a9,9,0,0,0,0,1.26,1.25,1.25,0,0,0,1.39,1.32,1.4,1.4,0,0,0,1.16-.52,4.38,4.38,0,0,0,.51-2.5v-3.24a5.9,5.9,0,0,0-.1-1.07,1.38,1.38,0,0,0-.44-.77,1.46,1.46,0,0,0-.93-.31c-1,0-1.49.55-1.58,1.61a10.05,10.05,0,0,0-.05,1.28Z"/><path class="cls-8" d="M413.61,125.58a2.38,2.38,0,0,1,.6-1.18,2.49,2.49,0,0,1,1.13-.72,5.2,5.2,0,0,1,1.63-.26,5.59,5.59,0,0,1,1.78.27,2.36,2.36,0,0,1,1.46,1.44,6.19,6.19,0,0,1,.24,2.08v7.5H418.4v-1.2a3.26,3.26,0,0,1-1,1.1,2.88,2.88,0,0,1-1.45.32,2.79,2.79,0,0,1-1.11-.18c-1.05-.36-1.57-1.33-1.55-2.93a7.63,7.63,0,0,1,.2-1.8,2.61,2.61,0,0,1,2.12-1.85,8.73,8.73,0,0,1,1.46-.25l1.37,0v-1.3c0-1.09-.47-1.63-1.38-1.61a1.36,1.36,0,0,0-1.17.53,2.87,2.87,0,0,0-.31,1.29h-2.06A5.9,5.9,0,0,1,413.61,125.58Zm4.79,3.85h-.6c-1.7.09-2.53.86-2.5,2.33q0,1.61,1.26,1.62a1.63,1.63,0,0,0,1.59-1.14,2.9,2.9,0,0,0,.23-.91l0-.88Z"/><path class="cls-8" d="M422.64,123.64h2.05v1a3,3,0,0,1,2.51-1.19,3.36,3.36,0,0,1,1.23.23,2.19,2.19,0,0,1,1.38,2.11l0,1.42v7.53h-2v-7l0-1.11c0-1.1-.51-1.65-1.43-1.65a1.37,1.37,0,0,0-1.37.84,3.07,3.07,0,0,0-.24,1,10,10,0,0,0,0,1.11v6.82h-2.05Z"/><path class="cls-8" d="M439.26,118.8v15.91h-2.05v-1a3.13,3.13,0,0,1-2.38,1.24,2.52,2.52,0,0,1-2.6-2.11,7.38,7.38,0,0,1-.17-1.67v-3.69c0-2.7.94-4,2.89-4a2.71,2.71,0,0,1,1.74.53c.13.11.31.27.52.47V118.8Zm-5.15,12a9,9,0,0,0,0,1.26,1.25,1.25,0,0,0,1.39,1.32,1.4,1.4,0,0,0,1.16-.52,4.38,4.38,0,0,0,.51-2.5v-3.24a5.9,5.9,0,0,0-.1-1.07,1.38,1.38,0,0,0-.44-.77,1.46,1.46,0,0,0-.93-.31c-1,0-1.49.55-1.58,1.61a10.05,10.05,0,0,0-.05,1.28Z"/><path class="cls-8" d="M449.1,118.82v15.89h-2.19V118.82Z"/><path class="cls-8" d="M453.74,129.38v.89a4.65,4.65,0,0,0,.13,1.26,1.9,1.9,0,0,0,2.13,1.61,3.06,3.06,0,0,0,1.23-.22,2.21,2.21,0,0,0,1.27-2.27,2.34,2.34,0,0,0-.82-1.9,11.44,11.44,0,0,0-1.36-.92l-1.59-.89a8.51,8.51,0,0,1-1.58-1.07,4,4,0,0,1-1.32-3.24,3.71,3.71,0,0,1,1.48-3.28,5.38,5.38,0,0,1,3-.76,4.4,4.4,0,0,1,3.34,1.09c.54.57.81,1.71.81,3.4v.31h-2.19V123l0-.82a1.75,1.75,0,0,0-1.95-1.8,2,2,0,0,0-2.23,2.18,2.59,2.59,0,0,0,1.38,2.26c.58.36,1.22.73,1.94,1.11a13.37,13.37,0,0,1,1.76,1,4.2,4.2,0,0,1,1.59,3.58q0,4.37-4.68,4.36a4.73,4.73,0,0,1-3.06-.81,3.63,3.63,0,0,1-1.36-2.83l0-1.28v-.63Z"/><path class="cls-8" d="M463.12,124a10.79,10.79,0,0,1,.3-2.87,3.1,3.1,0,0,1,1.92-2,6.11,6.11,0,0,1,4.65,0,3.16,3.16,0,0,1,1.91,2,11.07,11.07,0,0,1,.31,2.87v5.32a19.72,19.72,0,0,1-.13,2.49q-.36,3.15-4.35,3.17-2.89,0-3.87-1.47a8.17,8.17,0,0,1-.74-4.19Zm2.19,5.3a9.5,9.5,0,0,0,.24,2.61,1.78,1.78,0,0,0,.84.94,2.41,2.41,0,0,0,1.28.34,2.22,2.22,0,0,0,1.14-.28A2,2,0,0,0,470,131c0-.49.06-1.08.07-1.78v-5.31a6.38,6.38,0,0,0-.31-2.43,2,2,0,0,0-2-1.12,2.6,2.6,0,0,0-1.11.23,2,2,0,0,0-1.19,1.85,11,11,0,0,0-.06,1.47Z"/><path class="cls-8" d="M485.5,128.35a4.06,4.06,0,0,1-2.15.57,3.71,3.71,0,0,1-1.43-.24,2.76,2.76,0,0,1-1.82-2.4,12.09,12.09,0,0,1-.2-2.28,7.09,7.09,0,0,1,.75-3.83,3.87,3.87,0,0,1,3.48-1.54,5.71,5.71,0,0,1,1.5.19,3.68,3.68,0,0,1,1.53.84,2.71,2.71,0,0,1,.74,1.1,5.68,5.68,0,0,1,.31,1.6c.07,1,.1,2.15.1,3.36,0,1.58,0,3.11-.13,4.58a11.05,11.05,0,0,1-.31,2,3,3,0,0,1-.6,1.23,4.12,4.12,0,0,1-3.42,1.35,5.29,5.29,0,0,1-1.93-.3,2.37,2.37,0,0,1-1.4-1.15,3.58,3.58,0,0,1-.49-1.62,7.74,7.74,0,0,1,0-1v-.51h2v.5q0,2.28,2,2.31a1.87,1.87,0,0,0,1.87-1.13,8.34,8.34,0,0,0,.33-2.28l.05-1.94Zm.79-4.64a6.51,6.51,0,0,0-.3-2.28,1.84,1.84,0,0,0-1.89-1,1.8,1.8,0,0,0-1.83,1.13,6.27,6.27,0,0,0-.32,2.26,9.13,9.13,0,0,0,.11,1.5,1.86,1.86,0,0,0,2,1.88Q486.34,127.19,486.29,123.71Z"/><path class="cls-8" d="M499,129.75a13.86,13.86,0,0,1-.13,2,3.3,3.3,0,0,1-1.4,2.37,4.73,4.73,0,0,1-2.67.78,4.5,4.5,0,0,1-1.74-.31,3.29,3.29,0,0,1-2.34-2.84,13.48,13.48,0,0,1-.13-2v-6a16.37,16.37,0,0,1,.12-2.11,2.85,2.85,0,0,1,1.41-2.28,4.9,4.9,0,0,1,2.68-.69,4.13,4.13,0,0,1,3.47,1.37c.48.63.72,1.86.73,3.71Zm-2.05-6c0-.44,0-.86,0-1.29a1.9,1.9,0,0,0-2.15-2,1.81,1.81,0,0,0-1.88,1.06,6.86,6.86,0,0,0-.23,2.25v6.06l.06,1.13c.12,1.52.81,2.29,2.09,2.29s1.9-.77,2.08-2.29a9.24,9.24,0,0,0,.07-1.13Z"/><path class="cls-8" d="M509.66,129.75a13.86,13.86,0,0,1-.13,2,3.3,3.3,0,0,1-1.4,2.37,4.73,4.73,0,0,1-2.67.78,4.42,4.42,0,0,1-1.73-.31,3.29,3.29,0,0,1-2.35-2.84,12.38,12.38,0,0,1-.12-2v-6a18.58,18.58,0,0,1,.11-2.11,2.88,2.88,0,0,1,1.41-2.28,4.92,4.92,0,0,1,2.68-.69,4.11,4.11,0,0,1,3.47,1.37,6.57,6.57,0,0,1,.73,3.71Zm-2.05-6c0-.44,0-.86,0-1.29a1.9,1.9,0,0,0-2.14-2,1.79,1.79,0,0,0-1.88,1.06,6.53,6.53,0,0,0-.24,2.25v6.06l.07,1.13c.11,1.52.8,2.29,2.08,2.29s1.9-.77,2.09-2.29c0-.41.06-.78.06-1.13Z"/><path class="cls-8" d="M511.74,120.92l1-.6a13,13,0,0,0,1.13-.88l.68-.59h1.7v15.86h-2.05v-13.4l-.75.6a4.48,4.48,0,0,1-.91.57l-.78.32Z"/><path class="cls-8" d="M523.63,123.64v2.43H521.2v-2.43Zm0,8.65v2.42H521.2v-2.42Z"/><path class="cls-8" d="M526.22,132.7l1.21-1.46,1.6-1.92c2.21-2.78,3.33-5,3.34-6.77a1.9,1.9,0,0,0-2.08-2.16c-1.21,0-1.83.54-1.88,1.57v1.12h-2v-.69c0-1.93.78-3.1,2.25-3.53a6.36,6.36,0,0,1,1.71-.23q4.07,0,4.11,3.81a8.76,8.76,0,0,1-1.64,4.65q-.94,1.46-3,4L528.25,133h6.35v1.76h-8.38Z"/><path class="cls-8" d="M545.13,129.75a13.77,13.77,0,0,1-.14,2,3.26,3.26,0,0,1-1.4,2.37,4.73,4.73,0,0,1-2.67.78,4.42,4.42,0,0,1-1.73-.31,3.3,3.3,0,0,1-2.35-2.84,12.38,12.38,0,0,1-.12-2v-6a18.58,18.58,0,0,1,.11-2.11,2.9,2.9,0,0,1,1.41-2.28,4.92,4.92,0,0,1,2.68-.69,4.11,4.11,0,0,1,3.47,1.37,6.64,6.64,0,0,1,.74,3.71Zm-2-6c0-.44,0-.86-.05-1.29a1.9,1.9,0,0,0-2.14-2,1.79,1.79,0,0,0-1.88,1.06,6.53,6.53,0,0,0-.24,2.25v6.06l.07,1.13c.11,1.52.81,2.29,2.08,2.29s1.9-.77,2.09-2.29c0-.41.07-.78.07-1.13Z"/><path class="cls-8" d="M547.2,120.92l1-.6a11.67,11.67,0,0,0,1.13-.88l.68-.59h1.71v15.86h-2.05v-13.4l-.76.6a4.48,4.48,0,0,1-.91.57l-.78.32Z"/><path class="cls-8" d="M558.74,130.78v.39c0,1.32.61,2,1.82,2a1.83,1.83,0,0,0,2-1.54,15.36,15.36,0,0,0,.18-2.76c0-.43,0-.8,0-1.12a1.7,1.7,0,0,0-1.86-1.74c-1.14,0-1.78.48-1.92,1.42l-.08.71h-2.05l.13-9.3h7.51v1.76h-5.59l-.14,5a6.08,6.08,0,0,1,.72-.68,3.61,3.61,0,0,1,2.26-.71,2.65,2.65,0,0,1,3,2.55,16.45,16.45,0,0,1,.14,2.13,20.83,20.83,0,0,1-.2,3,3.36,3.36,0,0,1-3.9,3,6.91,6.91,0,0,1-1.74-.21,2.81,2.81,0,0,1-1.43-.82,3.49,3.49,0,0,1-.83-2.55v-.57Z"/><path class="cls-8" d="M579,123v-.74c0-1.27-.67-1.9-1.85-1.89a2,2,0,0,0-2,1,2.24,2.24,0,0,0-.28,1l0,1.31v6.26a5.55,5.55,0,0,0,.27,2.2,1.94,1.94,0,0,0,1.87,1c1.16,0,1.82-.68,2-2l.09-1v-.54h2.19v.55l0,1a4.18,4.18,0,0,1-1,2.73,2.94,2.94,0,0,1-1.27.82,5.78,5.78,0,0,1-1.9.29,6.12,6.12,0,0,1-1.67-.19c-1.81-.41-2.71-1.89-2.72-4.45V124a14.57,14.57,0,0,1,.1-1.92,3.91,3.91,0,0,1,.59-1.8q1.05-1.6,3.75-1.65c2.53,0,3.89,1,4.08,3a11.63,11.63,0,0,1,.06,1.25v.62H579Z"/><path class="cls-8" d="M585.5,131.09a4.29,4.29,0,0,0,.18,1.58,1.33,1.33,0,0,0,1.33.71,1.37,1.37,0,0,0,1.55-1.26l0-.48v-.26h2v.26l0,.77q-.25,2.53-3.64,2.52a4.87,4.87,0,0,1-1.46-.18,2.48,2.48,0,0,1-1.37-.86,4.77,4.77,0,0,1-.7-2.9v-3.13a5.83,5.83,0,0,1,.64-3.24,3.47,3.47,0,0,1,3-1.2c2.2,0,3.36.94,3.51,2.77,0,.35,0,.76,0,1.23v2.48H585.5Zm0-2.75h3.1v-1.27c0-1.38-.52-2.08-1.54-2.1a1.37,1.37,0,0,0-1.34.83,4.12,4.12,0,0,0-.22,1.64Z"/><path class="cls-8" d="M594.8,123.64V125a3,3,0,0,1,1.1-1.18,3.32,3.32,0,0,1,.81-.32l.66-.09v2l-.69.06a1.83,1.83,0,0,0-1.52.93,5.08,5.08,0,0,0-.36,2.16v6.11h-2V123.64Z"/><path class="cls-8" d="M600.16,123.64v-2l2.05-.92v2.9h1.67v1.56h-1.67v7.23c0,.59.4.9,1.12.93l.54,0v1.41l-.68.1a3.94,3.94,0,0,1-.77,0c-1.41,0-2.15-.56-2.23-1.69l0-1.21V125.2h-1.45v-1.56Z"/><path class="cls-8" d="M608,118.8v2.07h-2.21V118.8Zm-2.13,4.84h2.05v11.07h-2.05Z"/><path class="cls-8" d="M609.87,123.64h1.46v-2.12a3.68,3.68,0,0,1,.46-2.06,2.24,2.24,0,0,1,1.93-.8c.35,0,.85,0,1.5.11v1.47l-.58,0c-.83,0-1.25.45-1.26,1.37v2h1.84v1.56h-1.84v9.51h-2V125.2h-1.46Z"/><path class="cls-8" d="M619.13,118.8v2.07h-2.21V118.8ZM617,123.64h2v11.07h-2Z"/><path class="cls-8" d="M623.1,131.09a4.78,4.78,0,0,0,.18,1.58,1.33,1.33,0,0,0,1.33.71,1.37,1.37,0,0,0,1.55-1.26l0-.48v-.26h2v.26l0,.77q-.26,2.53-3.64,2.52a4.77,4.77,0,0,1-1.45-.18,2.47,2.47,0,0,1-1.38-.86,4.77,4.77,0,0,1-.7-2.9v-3.13a5.92,5.92,0,0,1,.64-3.24,3.48,3.48,0,0,1,3-1.2q3.3,0,3.51,2.77c0,.35,0,.76,0,1.23v2.48H623.1Zm0-2.75h3.1v-1.27c0-1.38-.52-2.08-1.54-2.1a1.38,1.38,0,0,0-1.34.83,4.32,4.32,0,0,0-.22,1.64Z"/><path class="cls-8" d="M637.45,118.8v15.91H635.4v-1a3.11,3.11,0,0,1-2.38,1.24,2.52,2.52,0,0,1-2.6-2.11,7.38,7.38,0,0,1-.17-1.67v-3.69q0-4,2.89-4a2.71,2.71,0,0,1,1.74.53c.13.11.31.27.52.47V118.8Zm-5.15,12a10.92,10.92,0,0,0,0,1.26,1.25,1.25,0,0,0,1.39,1.32,1.39,1.39,0,0,0,1.16-.52,4.38,4.38,0,0,0,.51-2.5v-3.24a5.9,5.9,0,0,0-.1-1.07,1.38,1.38,0,0,0-.44-.77,1.46,1.46,0,0,0-.93-.31c-1,0-1.48.55-1.57,1.61a8.39,8.39,0,0,0-.06,1.28Z"/><circle class="cls-7" cx="569.54" cy="20.06" r="2.1"/><circle class="cls-7" cx="646.65" cy="20.06" r="2.1"/></svg>